# xmcd
#
# Track frame offsets:
#	150
#	16837
#	34142
#	53765
#	70939
#	93458
#	109856
#	126009
#	146892
#	165886
#	182665
#	200428
#	219314
#	241906
#	257629
#	285837
#	301795
#	319184
#	338075
#
# Disc length: 4776 seconds
#
# Revision: 1
# Processed by: cddbd v1.5.2PL0 Copyright (c) Steve Scherf et al.
# Submitted via: audiograbber 1.83.01
#
DISCID=0212a613
DTITLE=Enrique Iglesias - Seven
DYEAR=2003
DGENRE=Pop
TTITLE0=Not in Love
TTITLE1=The Way you touch me
TTITLE2=Say it
TTITLE3=California Callin'
TTITLE4=Addicted
TTITLE5=Break me Shake me
TTITLE6=Free
TTITLE7=Be Yourself
TTITLE8=Wish you were here (with me)
TTITLE9=You Rock me
TTITLE10=Roamer
TTITLE11=Live it up Tonight
TTITLE12=Adicto
TTITLE13=Addicted - Metro Mix
TTITLE14=Addicted - Glam as you Mix
TTITLE15=Escape
TTITLE16=Don't turn off the Lights 
TTITLE17=Love to See you Cry
TTITLE18=Hero
EXTD=
EXTT0=
EXTT1=
EXTT2=
EXTT3=
EXTT4=
EXTT5=
EXTT6=
EXTT7=
EXTT8=
EXTT9=
EXTT10=
EXTT11=
EXTT12=
EXTT13=
EXTT14=
EXTT15=
EXTT16=
EXTT17=
EXTT18=
PLAYORDER=
